<?xml version="1.0"?>
<svg xmlns="http://www.w3.org/2000/svg" xmlns:xlink="http://www.w3.org/1999/xlink" version="1.1" id="Capa_1" x="0px" y="0px" viewBox="0 0 155.805 155.805" style="enable-background:new 0 0 155.805 155.805;" xml:space="preserve" width="512px" height="512px" class=""><g transform="matrix(1 0 0 1 0 0)"><g>
	<path d="M77.902,155.805c-42.955,0-77.899-34.947-77.899-77.906C0.004,34.943,34.947,0,77.902,0   s77.899,34.943,77.899,77.899C155.801,120.857,120.857,155.805,77.902,155.805z M77.902,7.603   c-38.76,0-70.295,31.535-70.295,70.295c0,38.764,31.535,70.302,70.295,70.302s70.295-31.539,70.295-70.302   C148.197,39.139,116.662,7.603,77.902,7.603z" data-original="#010002" class="active-path" data-old_color="#FFEF00" fill="#180533"/>
	<g>
		<path d="M57.223,58.757c0,3.066-2.502,5.561-5.569,5.561c-3.052,0-5.547-2.495-5.547-5.561    c0-3.067,2.495-5.554,5.547-5.554C54.721,53.202,57.223,55.689,57.223,58.757z" data-original="#010002" class="active-path" data-old_color="#FFEF00" fill="#180533"/>
		<path d="M109.712,58.757c0,3.066-2.495,5.561-5.561,5.561c-3.066,0-5.562-2.495-5.562-5.561    c0-3.067,2.495-5.554,5.562-5.554C107.217,53.202,109.712,55.689,109.712,58.757z" data-original="#010002" class="active-path" data-old_color="#FFEF00" fill="#180533"/>
	</g>
	<path d="M88.587,125.134c-3.631,0-7.618-2.012-11.836-4.136c-2.911-1.47-6.289-3.193-8.272-3.278   c-1.656,0.019-5.094,1.823-7.856,3.275c-4.002,2.098-7.774,4.08-11.242,4.136c-0.03,0-0.067,0-0.097,0   c-4.923,0-13.766-5.632-17.353-8.064l4.262-6.297c5.294,3.586,11.398,6.742,13.068,6.757c1.656-0.026,5.071-1.823,7.826-3.263   c4.017-2.112,7.819-4.106,11.309-4.147c3.349-0.026,7.574,1.968,11.776,4.091c2.985,1.504,6.735,3.308,8.487,3.323   c1.344-0.048,4.403-1.841,6.646-3.152c3.794-2.228,7.254-4.373,10.863-4.262c5.027,0.097,14.769,6.163,17.635,8.023l-4.128,6.378   c-5.547-3.59-11.925-6.764-13.648-6.798c-1.106-0.052-4.678,1.931-6.883,3.223c-3.579,2.09-6.957,4.069-10.202,4.184   C88.825,125.131,88.706,125.134,88.587,125.134z" data-original="#010002" class="active-path" data-old_color="#FFEF00" fill="#180533"/>
</g></g> </svg>
