<?xml version="1.0" encoding="iso-8859-1"?>
<!-- Generator: Adobe Illustrator 19.0.0, SVG Export Plug-In . SVG Version: 6.00 Build 0)  -->
<svg version="1.1" id="Capa_1" xmlns="http://www.w3.org/2000/svg" xmlns:xlink="http://www.w3.org/1999/xlink" x="0px" y="0px"
	 viewBox="0 0 512 512" style="enable-background:new 0 0 512 512;" xml:space="preserve">
<path style="fill:#303C42;" d="M256,0C114.833,0,0,114.844,0,256s114.833,256,256,256s256-114.844,256-256S397.167,0,256,0z"/>
<path style="fill:#FED600;" d="M256,490.667C126.604,490.667,21.333,385.396,21.333,256S126.604,21.333,256,21.333
	S490.667,126.604,490.667,256S385.396,490.667,256,490.667z"/>
<path style="opacity:0.1;fill:#010101;enable-background:new    ;" d="M410.682,79.984c36.384,41.35,58.651,95.405,58.651,154.682
	c0,129.396-105.271,234.667-234.667,234.667c-59.277,0-113.332-22.267-154.682-58.651c43.038,48.911,105.897,79.984,176.016,79.984
	c129.396,0,234.667-105.271,234.667-234.667C490.667,185.882,459.594,123.022,410.682,79.984z"/>
<circle style="fill:#303C42;" cx="170.667" cy="192" r="42.667"/>
<circle style="fill:#BDDDF4;" cx="170.667" cy="192" r="21.333"/>
<path style="opacity:0.1;fill:#010101;enable-background:new    ;" d="M179.372,172.621c1.21,2.674,1.961,5.591,1.961,8.712
	c0,11.76-9.563,21.333-21.333,21.333c-3.12,0-6.034-0.747-8.706-1.954c3.349,7.404,10.725,12.621,19.372,12.621
	C182.438,213.333,192,203.76,192,192C192,183.355,186.784,175.969,179.372,172.621z"/>
<circle style="fill:#303C42;" cx="341.333" cy="192" r="42.667"/>
<circle style="fill:#BDDDF4;" cx="341.333" cy="192" r="21.333"/>
<path style="opacity:0.1;fill:#010101;enable-background:new    ;" d="M350.039,172.621c1.21,2.674,1.961,5.591,1.961,8.712
	c0,11.76-9.563,21.333-21.333,21.333c-3.12,0-6.034-0.747-8.706-1.954c3.349,7.404,10.725,12.621,19.372,12.621
	c11.771,0,21.333-9.573,21.333-21.333C362.667,183.355,357.451,175.969,350.039,172.621z"/>
<path style="fill:#303C42;" d="M385.063,289.938C351.583,267.729,312.646,256,272.479,256h-33.188
	c-40.021,0-78.771,11.74-112.104,33.938c-12.854,8.573-20.521,22.906-20.521,38.354v77.042c0,3.938,3.021,6.969,6.5,8.823
	c3.458,1.854,8.542,1.063,11.813-1.104C161.146,388.938,203.583,384,256.167,384c52.438,0,94.75,4.885,130,28.229l1.917,1.5
	c1.917,1.5,4.25,2.271,6.583,2.271c1.583,0,3.188-0.354,4.667-1.073c3.667-1.792,6-5.51,6-9.594v-76.979
	C405.333,312.719,397.75,298.354,385.063,289.938z"/>
<g>
	<path style="fill:#F3F3F3;" d="M139.021,307.688c29.813-19.854,64.479-30.354,100.271-30.354h33.188
		c35.958,0,70.813,10.5,100.792,30.375c6.708,4.458,10.729,12.177,10.729,20.646v7.582c-79.302-33.966-176.698-33.966-256,0v-7.645
		C128,320,132.125,312.292,139.021,307.688z"/>
	<path style="fill:#F3F3F3;" d="M256.167,362.667c-49.167,0-90.354,4.208-128.167,23.958v-27.573
		c78.107-36.693,177.893-36.693,256,0v27.24C342.646,364.656,296.688,362.667,256.167,362.667z"/>
</g>
<path style="opacity:0.2;fill:#FFFFFF;enable-background:new    ;" d="M149.333,301.859c-3.426,1.973-7.001,3.622-10.313,5.828
	C132.125,312.292,128,320,128,328.292v7.645c6.93-2.969,14.151-5.342,21.333-7.792V301.859z"/>
<path style="opacity:0.1;fill:#010101;enable-background:new    ;" d="M373.271,307.708c-3.405-2.258-7.078-3.952-10.604-5.966
	v26.402c7.182,2.449,14.404,4.823,21.333,7.792v-7.582C384,319.885,379.979,312.167,373.271,307.708z"/>
<path style="opacity:0.2;fill:#FFFFFF;enable-background:new    ;" d="M149.333,377.372v-26.819
	c-7.199,2.667-14.441,5.26-21.333,8.499v27.573c6.969-3.639,14.102-6.595,21.328-9.25L149.333,377.372z"/>
<path style="opacity:0.1;fill:#010101;enable-background:new    ;" d="M362.667,377.1c7.201,2.618,14.348,5.536,21.333,9.191v-27.24
	c-6.892-3.238-14.134-5.832-21.333-8.499V377.1z"/>
<linearGradient id="SVGID_1_" gradientUnits="userSpaceOnUse" x1="-45.5785" y1="639.5551" x2="-23.8277" y2="629.4137" gradientTransform="matrix(21.3333 0 0 -21.3333 996.3334 13791.667)">
	<stop  offset="0" style="stop-color:#FFFFFF;stop-opacity:0.2"/>
	<stop  offset="1" style="stop-color:#FFFFFF;stop-opacity:0"/>
</linearGradient>
<path style="fill:url(#SVGID_1_);" d="M256,0C114.833,0,0,114.844,0,256s114.833,256,256,256s256-114.844,256-256S397.167,0,256,0z"
	/>
<g>
</g>
<g>
</g>
<g>
</g>
<g>
</g>
<g>
</g>
<g>
</g>
<g>
</g>
<g>
</g>
<g>
</g>
<g>
</g>
<g>
</g>
<g>
</g>
<g>
</g>
<g>
</g>
<g>
</g>
</svg>
